<svg width="15" height="16" viewBox="0 0 15 16" fill="none" xmlns="http://www.w3.org/2000/svg">
<path d="M13.3447 12.7568L10.6189 10.0298C11.4362 8.96482 11.8178 7.6288 11.6862 6.2928C11.5547 4.9568 10.9199 3.72085 9.91056 2.83569C8.90126 1.95052 7.59305 1.48242 6.25131 1.52633C4.90956 1.57024 3.63476 2.12288 2.68549 3.07215C1.73623 4.02141 1.18359 5.29622 1.13967 6.63796C1.09576 7.97971 1.56387 9.28792 2.44903 10.2972C3.3342 11.3065 4.57014 11.9413 5.90614 12.0729C7.24214 12.2044 8.57816 11.8229 9.64318 11.0056L12.3713 13.7342C12.4353 13.7983 12.5114 13.8491 12.5951 13.8838C12.6788 13.9185 12.7685 13.9363 12.8591 13.9363C12.9497 13.9363 13.0395 13.9185 13.1232 13.8838C13.2069 13.8491 13.2829 13.7983 13.347 13.7342C13.4111 13.6702 13.4619 13.5941 13.4966 13.5104C13.5313 13.4267 13.5491 13.337 13.5491 13.2464C13.5491 13.1558 13.5313 13.066 13.4966 12.9823C13.4619 12.8986 13.4111 12.8226 13.347 12.7585L13.3447 12.7568ZM2.52595 6.81561C2.52595 6.04367 2.75486 5.28906 3.18372 4.64722C3.61259 4.00537 4.22216 3.50511 4.93534 3.20971C5.64852 2.9143 6.43328 2.837 7.19039 2.9876C7.94749 3.1382 8.64294 3.50993 9.18879 4.05577C9.73463 4.60161 10.1064 5.29706 10.257 6.05417C10.4076 6.81128 10.3303 7.59604 10.0348 8.30922C9.73944 9.0224 9.23918 9.63196 8.59734 10.0608C7.95549 10.4897 7.20089 10.7186 6.42895 10.7186C5.39414 10.7175 4.40201 10.306 3.67029 9.57427C2.93856 8.84254 2.52701 7.85042 2.52595 6.81561Z" fill="#45556C"/>
</svg>
